<svg width="165" height="120" viewBox="0 0 165 120" fill="none" xmlns="http://www.w3.org/2000/svg">
<circle cx="51.6547" cy="51.6547" r="43.6547" stroke="#158BD9" stroke-width="16"/>
<path d="M47.2775 11.0274C57 9.20092 54.13 3.53774 45.8265 4.49999C-10.5 11.0274 -10.5 90.5 45 100C48.5441 98.8337 47.451 94.6608 46 93.5C-5.82649 71.9768 9.00002 18.2182 47.2775 11.0274Z" fill="white"/>
<path d="M40.1094 93.5563C38.9444 91.1607 39.942 88.2744 42.3375 87.1094V87.1094C44.733 85.9444 47.6194 86.942 48.7844 89.3375L57.7884 107.853C58.9512 110.244 59.5326 111.439 59.5383 112.577C59.5439 113.714 59.1622 114.819 58.456 115.709C57.7487 116.601 56.5531 117.182 54.162 118.345L52.5465 119.131L40.1094 93.5563Z" fill="white"/>
<path d="M123.664 63.912C123.664 64.7653 123.515 65.5227 123.216 66.184C122.917 66.8453 122.491 67.3787 121.936 67.784H121.968C121.435 68.1467 120.869 68.4453 120.272 68.68C119.675 68.8933 119.099 69 118.544 69H113.392C112.859 69 112.283 68.8933 111.664 68.68C111.067 68.4453 110.501 68.1467 109.968 67.784H110C109.445 67.3787 109.019 66.8453 108.72 66.184C108.421 65.5227 108.272 64.7653 108.272 63.912V51.08C108.272 50.056 108.859 49.544 110.032 49.544C111.205 49.544 111.792 50.056 111.792 51.08V63.656C111.792 64.2533 111.941 64.776 112.24 65.224C112.517 65.736 113.093 65.992 113.968 65.992H117.968C118.821 65.992 119.387 65.736 119.664 65.224L119.632 65.256C119.973 64.744 120.144 64.2107 120.144 63.656V51.08C120.144 50.056 120.731 49.544 121.904 49.544C123.077 49.544 123.664 50.056 123.664 51.08V63.912ZM131.166 67.656C131.166 68.168 130.985 68.552 130.622 68.808C130.26 69.064 129.865 69.192 129.438 69.192C128.265 69.192 127.678 68.68 127.678 67.656V44.936C127.678 43.912 128.265 43.4 129.438 43.4C130.612 43.4 131.198 43.912 131.198 44.936V49.736H137.95C139.038 49.736 140.169 50.1413 141.342 50.952C142.494 51.7627 143.07 53.0427 143.07 54.792V64.328C143.07 66.0987 142.548 67.3147 141.502 67.976C140.457 68.6587 139.262 69 137.918 69H134.142C133.374 69 132.969 68.4987 132.926 67.496C132.926 66.4933 133.332 65.992 134.142 65.992H137.342C138.132 65.992 138.697 65.8533 139.038 65.576C139.38 65.2773 139.55 64.8507 139.55 64.296V55.08C139.55 54.5253 139.38 53.992 139.038 53.48L139.07 53.512C138.793 53 138.228 52.744 137.374 52.744H131.198L131.166 67.656ZM150.607 67.656C150.607 68.68 150.02 69.192 148.847 69.192C147.652 69.192 147.055 68.68 147.055 67.656V51.144C147.055 50.12 147.652 49.608 148.847 49.608C150.02 49.608 150.607 50.12 150.607 51.144V67.656ZM151.279 45.576C151.279 46.2587 151.044 46.8347 150.575 47.304C150.105 47.7733 149.529 48.008 148.847 48.008C148.164 48.008 147.577 47.7733 147.087 47.304C146.617 46.8347 146.383 46.2587 146.383 45.576C146.383 44.872 146.617 44.2853 147.087 43.816C147.577 43.3467 148.164 43.112 148.847 43.112C149.529 43.112 150.105 43.3467 150.575 43.816C151.044 44.2853 151.279 44.872 151.279 45.576ZM159.245 52.744V64.392C159.245 64.9467 159.363 65.3733 159.597 65.672C159.832 65.9707 160.333 66.12 161.101 66.12H161.933C162.765 66.12 163.16 66.6107 163.117 67.592C163.117 68.5947 162.723 69.096 161.933 69.096H160.877C160.195 69.096 159.555 69.0107 158.957 68.84C158.36 68.648 157.784 68.3813 157.229 68.04V68.072C156.184 67.3893 155.661 66.1733 155.661 64.424V52.744H154.413C153.645 52.744 153.24 52.2427 153.197 51.24C153.197 50.2373 153.603 49.736 154.413 49.736H155.661V46.312C155.661 45.288 156.269 44.776 157.485 44.776C158.659 44.776 159.245 45.288 159.245 46.312V49.736H161.901C162.733 49.736 163.128 50.2373 163.085 51.24C163.085 52.2427 162.691 52.744 161.901 52.744H159.245Z" fill="white"/>
</svg>
